HIERARCHY
ROOT Hips
{
	OFFSET -14.64140 90.27770 -84.91600
	CHANNELS 6 Xposition Yposition Zposition Zrotation Xrotation Yrotation
	JOINT Spine
	{
		OFFSET 0.00000 13.20850 -1.60436
		CHANNELS 3 Zrotation Xrotation Yrotation
		JOINT Spine1
		{
			OFFSET 0.00000 8.61716 0.00000
			CHANNELS 3 Zrotation Xrotation Yrotation
			JOINT Spine2
			{
				OFFSET 0.00000 8.61717 0.00000
				CHANNELS 3 Zrotation Xrotation Yrotation
				JOINT Spine3
				{
					OFFSET 0.00000 8.61717 0.00000
					CHANNELS 3 Zrotation Xrotation Yrotation
					JOINT Neck
					{
						OFFSET 0.00000 11.07920 1.10792
						CHANNELS 3 Zrotation Xrotation Yrotation
						JOINT Neck1
						{
							OFFSET 0.00000 7.08032 0.00000
							CHANNELS 3 Zrotation Xrotation Yrotation
							JOINT Head
							{
								OFFSET 0.00000 7.08031 0.00000
								CHANNELS 3 Zrotation Xrotation Yrotation
								End site
								{
									OFFSET 0.00000 0.00000 0.00000
								}
							}
						}
					}
					JOINT RightShoulder
					{
						OFFSET -0.01000 7.91373 5.19711
						CHANNELS 3 Zrotation Xrotation Yrotation
						JOINT RightArm
						{
							OFFSET -18.41580 0.00000 0.00000
							CHANNELS 3 Zrotation Xrotation Yrotation
							JOINT RightForeArm
							{
								OFFSET -29.11090 0.00000 0.00000
								CHANNELS 3 Zrotation Xrotation Yrotation
								JOINT RightHand
								{
									OFFSET -24.65040 0.00000 0.00000
									CHANNELS 3 Zrotation Xrotation Yrotation
									JOINT RightHandThumb1
									{
										OFFSET -5.35114 -0.85590 3.97906
										CHANNELS 3 Zrotation Xrotation Yrotation
										JOINT RightHandThumb2
										{
											OFFSET -4.52789 0.00000 0.00000
											CHANNELS 3 Zrotation Xrotation Yrotation
											JOINT RightHandThumb3
											{
												OFFSET -2.46976 0.00000 0.00000
												CHANNELS 3 Zrotation Xrotation Yrotation
												End site
												{
													OFFSET 0.00000 0.00000 0.00000
												}
											}
										}
									}
									JOINT RightHandIndex1
									{
										OFFSET -14.26970 0.00000 2.88139
										CHANNELS 3 Zrotation Xrotation Yrotation
										JOINT RightHandIndex2
										{
											OFFSET -5.48836 0.00000 0.00000
											CHANNELS 3 Zrotation Xrotation Yrotation
											JOINT RightHandIndex3
											{
												OFFSET -3.01859 0.00000 0.00000
												CHANNELS 3 Zrotation Xrotation Yrotation
												End site
												{
													OFFSET 0.00000 0.00000 0.00000
												}
											}
										}
									}
									JOINT RightHandMiddle1
									{
										OFFSET -14.26970 0.00000 -0.09147
										CHANNELS 3 Zrotation Xrotation Yrotation
										JOINT RightHandMiddle2
										{
											OFFSET -6.17441 0.00000 0.00000
											CHANNELS 3 Zrotation Xrotation Yrotation
											JOINT RightHandMiddle3
											{
												OFFSET -3.56743 0.00000 0.00000
												CHANNELS 3 Zrotation Xrotation Yrotation
												End site
												{
													OFFSET 0.00000 0.00000 0.00000
												}
											}
										}
									}
									JOINT RightHandRing1
									{
										OFFSET -12.69180 0.00000 -3.06433
										CHANNELS 3 Zrotation Xrotation Yrotation
										JOINT RightHandRing2
										{
											OFFSET -5.62556 0.00000 0.00000
											CHANNELS 3 Zrotation Xrotation Yrotation
											JOINT RightHandRing3
											{
												OFFSET -3.56744 0.00000 0.00000
												CHANNELS 3 Zrotation Xrotation Yrotation
												End site
												{
													OFFSET 0.00000 0.00000 0.00000
												}
											}
										}
									}
									JOINT RightHandPinky1
									{
										OFFSET -11.11390 0.00000 -6.03719
										CHANNELS 3 Zrotation Xrotation Yrotation
										JOINT RightHandPinky2
										{
											OFFSET -4.52789 0.00000 0.00000
											CHANNELS 3 Zrotation Xrotation Yrotation
											JOINT RightHandPinky3
											{
												OFFSET -2.46976 0.00000 0.00000
												CHANNELS 3 Zrotation Xrotation Yrotation
												End site
												{
													OFFSET 0.00000 0.00000 0.00000
												}
											}
										}
									}
								}
							}
						}
					}
					JOINT LeftShoulder
					{
						OFFSET 0.01000 7.91373 5.19711
						CHANNELS 3 Zrotation Xrotation Yrotation
						JOINT LeftArm
						{
							OFFSET 18.41580 0.00000 0.00000
							CHANNELS 3 Zrotation Xrotation Yrotation
							JOINT LeftForeArm
							{
								OFFSET 29.11090 0.00000 0.00000
								CHANNELS 3 Zrotation Xrotation Yrotation
								JOINT LeftHand
								{
									OFFSET 24.65040 0.00000 0.00000
									CHANNELS 3 Zrotation Xrotation Yrotation
									JOINT LeftHandThumb1
									{
										OFFSET 5.35114 -0.85590 3.97906
										CHANNELS 3 Zrotation Xrotation Yrotation
										JOINT LeftHandThumb2
										{
											OFFSET 4.52789 0.00000 0.00000
											CHANNELS 3 Zrotation Xrotation Yrotation
											JOINT LeftHandThumb3
											{
												OFFSET 2.46977 0.00000 0.00000
												CHANNELS 3 Zrotation Xrotation Yrotation
												End site
												{
													OFFSET 0.00000 0.00000 0.00000
												}
											}
										}
									}
									JOINT LeftHandIndex1
									{
										OFFSET 14.26970 0.00000 2.88139
										CHANNELS 3 Zrotation Xrotation Yrotation
										JOINT LeftHandIndex2
										{
											OFFSET 5.48836 0.00000 0.00000
											CHANNELS 3 Zrotation Xrotation Yrotation
											JOINT LeftHandIndex3
											{
												OFFSET 3.01859 0.00000 0.00000
												CHANNELS 3 Zrotation Xrotation Yrotation
												End site
												{
													OFFSET 0.00000 0.00000 0.00000
												}
											}
										}
									}
									JOINT LeftHandMiddle1
									{
										OFFSET 14.26970 0.00000 -0.09147
										CHANNELS 3 Zrotation Xrotation Yrotation
										JOINT LeftHandMiddle2
										{
											OFFSET 6.17440 0.00000 0.00000
											CHANNELS 3 Zrotation Xrotation Yrotation
											JOINT LeftHandMiddle3
											{
												OFFSET 3.56744 0.00000 0.00000
												CHANNELS 3 Zrotation Xrotation Yrotation
												End site
												{
													OFFSET 0.00000 0.00000 0.00000
												}
											}
										}
									}
									JOINT LeftHandRing1
									{
										OFFSET 12.69180 0.00000 -3.06433
										CHANNELS 3 Zrotation Xrotation Yrotation
										JOINT LeftHandRing2
										{
											OFFSET 5.62556 0.00000 0.00000
											CHANNELS 3 Zrotation Xrotation Yrotation
											JOINT LeftHandRing3
											{
												OFFSET 3.56744 0.00000 0.00000
												CHANNELS 3 Zrotation Xrotation Yrotation
												End site
												{
													OFFSET 0.00000 0.00000 0.00000
												}
											}
										}
									}
									JOINT LeftHandPinky1
									{
										OFFSET 11.11390 0.00000 -6.03719
										CHANNELS 3 Zrotation Xrotation Yrotation
										JOINT LeftHandPinky2
										{
											OFFSET 4.52789 0.00000 0.00000
											CHANNELS 3 Zrotation Xrotation Yrotation
											JOINT LeftHandPinky3
											{
												OFFSET 2.46976 0.00000 0.00000
												CHANNELS 3 Zrotation Xrotation Yrotation
												End site
												{
													OFFSET 0.00000 0.00000 0.00000
												}
											}
										}
									}
								}
							}
						}
					}
					JOINT pCube4
					{
						OFFSET 0.00000 10.91090 1.10792
						CHANNELS 3 Zrotation Xrotation Yrotation
						End site
						{
							OFFSET 0.00000 0.00000 0.00000
						}
					}
				}
			}
		}
	}
	JOINT RightUpLeg
	{
		OFFSET -9.98441 0.00000 0.00000
		CHANNELS 3 Zrotation Xrotation Yrotation
		JOINT RightLeg
		{
			OFFSET 0.00000 -42.11790 0.00000
			CHANNELS 3 Zrotation Xrotation Yrotation
			JOINT RightFoot
			{
				OFFSET 0.00000 -45.00020 -0.00001
				CHANNELS 3 Zrotation Xrotation Yrotation
				JOINT RightForeFoot
				{
					OFFSET 0.00000 -3.74820 0.00000
					CHANNELS 3 Zrotation Xrotation Yrotation
					JOINT RightToeBase
					{
						OFFSET 0.00000 0.06325 14.43120
						CHANNELS 3 Zrotation Xrotation Yrotation
						End site
						{
							OFFSET 0.00000 0.00000 0.00000
						}
					}
				}
			}
		}
	}
	JOINT LeftUpLeg
	{
		OFFSET 9.98441 0.00000 0.00000
		CHANNELS 3 Zrotation Xrotation Yrotation
		JOINT LeftLeg
		{
			OFFSET 0.00000 -42.11800 0.00000
			CHANNELS 3 Zrotation Xrotation Yrotation
			JOINT LeftFoot
			{
				OFFSET 0.00000 -45.00070 0.00000
				CHANNELS 3 Zrotation Xrotation Yrotation
				JOINT LeftForeFoot
				{
					OFFSET 0.00000 -3.74824 0.00000
					CHANNELS 3 Zrotation Xrotation Yrotation
					JOINT LeftToeBase
					{
						OFFSET 0.00000 0.06325 14.43110
						CHANNELS 3 Zrotation Xrotation Yrotation
						End site
						{
							OFFSET 0.00000 0.00000 0.00000
						}
					}
				}
			}
		}
	}
}
MOTION
Frames: 4
Frame Time: 0.050000
-0.02921192003673634 -0.030255823716694052 -0.0074504783901381535 0.041577137769383404 -0.03776264036063199 0.029619472952991638 2.9195364312773666 3.729465175045903 -1.7409209928022447 -0.6481736445692151 3.5008961362061655 0.40260357205574515 -0.7776633038363927 -1.090116121336008 1.714261355831957 -0.8939676517043634 -0.6599315928855237 -0.26655161419460527 0.36056500794227087 11.880892862681302 -2.001522837783912 0.12344581227858005 -0.9243393070271005 -6.143332033213461 0.9060078953610688 -17.11584170803316 -0.5290370855323624 -9.689289865340022 3.542085909188698 -15.737831196969125 76.28856012289728 -9.030818874054164 23.41924609790491 22.149260880912042 4.815716497209903 80.13900564955797 17.107842141442013 -0.4211838833281686 -5.942605354618315 4.55499948586119 -0.09379365533856135 -1.6269065394476039 -0.002703258421653815 0.04014090159017395 -56.23878694290184 0.037696767495722275 -0.0221075431998064 -56.242059737557774 -38.803081551842205 0.027060578862912705 0.03675682641369018 0.03480856840553171 -0.03941089234528598 0.02520847687699105 0.00412242284585732 -0.011643549728988418 0.010256119695478592 -36.688802972146355 -0.04121180785141302 -0.0032935722877240536 -0.023040174507177692 -0.011109475143892846 -0.03543529303538808 0.035198373362007936 -0.025369544722218862 0.031611625673359234 -19.727624741713374 0.010137471038523522 0.02409582255380355 0.012616791294697052 0.010862268755165942 0.012742444375716831 -0.016801936227492268 0.011157585107298893 -0.029999619824862406 24.045556345043742 -0.02280957346454323 0.04598734371523868 28.840951633869704 -0.0038256283030650203 -0.04956195855304582 28.85513155723431 0.03956481326496944 0.032942693814492004 7.729973086896875 2.055001287759106 13.754915706483834 -74.96364950586768 7.260240380870013 -14.049884591693186 -11.142132890463284 12.585107081692554 -54.475304093811175 -21.334453978888046 2.260356190422295 -0.677002108452927 -0.44525055417542736 0.01982441473076895 -8.156302670393067 -0.010540615050687645 -0.01766894734963736 44.55884821812782 0.03875520157023813 -0.004080008471954682 44.530416442090136 12.411356657384475 -0.04928033312365034 -0.02421686951283902 0.03144909677956212 0.04593881067353308 0.04485030219562858 -0.0228112988027201 -0.03316513799388836 -0.01630686166554877 11.082018567806584 0.04097846276177084 -0.02852407597726359 0.0017398542392683802 0.03814304776848591 0.035622708830463874 -0.03746908951857513 0.0067131034957428086 0.04232679209860568 4.754050247749669 -0.0031944719435584874 -0.026955687545197744 0.005072012368382052 0.04208402439887868 -0.023181190526901728 -0.010426160807117621 -0.011075874065705565 0.04947817792469718 -5.620540161970897 0.029190857066641276 0.040226352017077686 -6.68183099176536 -0.007192943530293035 0.03224663625535643 -6.693075743800595 0.012893485626383556 -0.025587844215133115 0.03359211634282387 -0.026528475492414782 0.02696645600141603 8.030887102531809 3.5093883411948203 -19.2655334225102 0.01783093022585267 10.361807090566712 0.016499096309887582 -5.572686568904299 -15.691313754795521 3.191840507873186 0.012909052541632621 0.0210510356432415 0.008616705448294733 0.03344527095250771 4.706856010314423 -0.048235866235381085 12.435630869917256 -8.20853281744356 6.90029152979807 -0.007914589340065436 46.38019925974764 0.0477835541886147 -4.341805028799511 -14.771669327985387 -3.7914207290246287 0.023795372619449643 -0.007234954020815053 -0.011331370379986631 -0.026097353198914913 -10.716352110606856 -0.026073292547466095 
-0.007328641091686863 0.007826165171104195 0.041216606141276646 0.042194768512079234 -0.037095317205481225 0.014091686707429572 2.566433167633204 3.7427748489426715 -1.726814059515354 -0.6723823033531253 3.5879298625778113 0.4112198324628357 -0.8424477491285646 -1.120708350759477 1.7824471919028255 -0.8438496145133487 -0.7033292586466547 -0.2302847465684713 0.4520420921257042 12.111340333601701 -2.234256817128515 0.124167387639149 -0.8137148524138839 -6.934116082122515 0.9689051306744029 -16.930894070651217 -0.5479211351122848 -9.775498183145894 3.533928172163047 -15.622419922816299 75.36499936600751 -10.52651970317496 25.787320763371923 22.202608558302806 4.906234708599875 80.9464750136524 16.64951455459993 -0.47639640347166184 -5.46357801824923 4.531838450802971 -0.09183637672669831 -1.6365235278172818 -0.0010693052654967127 -0.005779774761195811 -56.197505021138454 -0.011541574297967339 0.010219669684750169 -56.2458031750175 -38.7907896437491 -0.026185535312636832 0.014751921372816812 0.0012550323550612193 -0.0058068906339435265 0.02895734484119614 -0.015657814015830187 0.03986822947659162 -0.0009574401767765925 -36.716322727036996 0.005832729756472508 0.014031444151759647 0.03579574151534604 0.004050004595018567 0.031731333732599114 0.0382281457677861 0.005645768500421901 0.010668437759201907 -19.743898592092975 0.04738741694273498 0.029687172565941767 0.015418757039339821 0.025061044316363874 -0.04620862354723013 -0.023372762948911305 0.0053412451912493485 -0.032283910655323 24.008666366737618 0.038847938363502574 -0.02005374906792895 28.845023120985857 0.004126750229297605 -0.020272697575460095 28.895749008786947 0.028947892746641 0.03441657815076219 7.446577565757025 1.9662717063365873 13.710830151664313 -75.15536447577817 5.9097940973820435 -14.23754146035699 -8.76319302113477 14.496867946924025 -52.57822856589426 -20.746621429155077 4.6450087828289 -2.1067263037462545 -0.4785792803690374 0.01788830387936257 -8.133096547825698 0.01822415553199456 -0.023032778634156023 44.52804132568555 0.041033123137726134 -0.0036945737648632956 44.54192227212377 12.441806020374507 -0.026767746169811972 0.01890133997443389 0.04411140348288764 -0.0252541166525687 -0.00201714901651119 -0.04157427969554074 -0.027936069189664247 -0.02161471836860303 11.112736757721361 -0.018245836603599425 -0.0027757794682763226 0.04323532836761089 -0.014014287753821924 -0.01685266874153212 -0.03380097372379589 -0.02695242719335334 0.032329252136166456 4.776676593623627 0.022640843564449006 0.03672818604689729 0.023687806160204196 0.02976421463149317 0.02945586523746847 0.029839949603389617 0.02152051125200005 -0.014491301998954292 -5.57459512851734 0.007041754672231833 0.039155785711765395 -6.716384683631557 0.02904016562101024 0.025278943461188082 -6.672462810326231 0.013402794603152713 -0.011053892118978488 -0.009465754821758474 -0.005313813095233183 -0.049553969879039865 8.043752257624037 3.5031214000281676 -19.183217289779726 0.016756081884696596 10.37206993847161 0.04736018901171378 -5.590660751358689 -15.61445744012961 3.2134035374468497 -0.018832026252219383 -0.039983355873570624 -0.02415320945724165 0.02239787047156082 4.711979455357376 0.04510779205036686 12.424276657898533 -8.206604693045222 6.9311021725183775 -0.030210843193316243 46.35158964850627 0.01840507276205541 -4.300122319865492 -14.71824829028245 -3.810771190171909 0.016517766753273242 -0.00027784808420369 0.014157500064365804 -0.017574045783077634 -10.716151481500166 0.01163533792181405 
-0.04968660579577844 -0.02419386211190021 -0.04776730375767274 -0.029572188866679172 -0.04650788842718141 -0.0009156248202617004 2.2960578290079985 3.6771060505277293 -1.7008629518152927 -0.668280821036143 3.551302056241616 0.40453656234701535 -0.8197581427598094 -1.1392624746241333 2.0362467970665667 -0.9130919329654944 -0.7099929150030617 -0.21555813257298867 0.6051767595205578 12.235909819003114 -2.3457258675198727 0.12876117412004204 -0.8226919710855449 -7.433978222187216 1.019190331430041 -16.79757923890444 -0.6144356992661317 -9.91837165301786 3.5902635636499003 -15.487662466024352 74.30531713114284 -12.3905628667073 28.394190729194356 21.52272447076588 4.917348540968039 81.11180007784634 16.381334490946273 -0.40508717802102445 -5.137571581274892 4.485608364621172 -0.16797997856156166 -1.5980868033659013 0.0042489739242276845 0.021694029566083385 -56.2391359226734 -0.02129004352581753 0.0010164605283366616 -56.23174317963863 -38.72672759791096 -0.046217209780998074 0.008953580940305267 -0.04529319239664685 0.01202044791776845 -0.03390821177702619 0.01449367718926837 0.02220665872338069 -0.010949390843985198 -36.67903261787457 -0.00025095178296000306 0.044037551522024355 -0.04574585642832704 0.050000236418310605 0.049164629546733424 0.00038469193333450565 -0.03627554564664159 -0.003282364447164743 -19.762021796963094 -0.002057374157746926 -0.04738402323227607 0.018444433955031477 0.03376416807729363 0.019744187703901826 0.023054340722493055 -0.0139176491663394 -0.046581505301697516 24.049884310378676 -0.015921887191661092 0.022757439589872246 28.868113910770262 -0.0016529364977810055 0.037831027363245374 28.86169567897929 0.04306641289907902 -0.04564083787629178 7.132701413813672 1.9288540120911457 13.833434725626757 -75.23853177948907 4.336692440299827 -14.047073674016213 -5.314341833062043 16.091504493299574 -49.38741087025529 -20.551802544916356 6.916735005280355 -3.4381140730497872 -0.4523041101001407 0.06758694054502222 -8.151150713537405 0.045464213179501826 0.04836201272464818 44.558376890300806 0.02368283624897034 -0.03680815774171719 44.60829637815352 12.431071926516973 0.03570972019586347 -0.03605335154415535 0.03520275836264116 0.04629641907054725 0.02326872464544813 -0.016100371702672048 0.038232818956466096 -0.018042305854373386 11.114158977816556 0.018364093009191517 -0.04957191416896501 0.048928623411689645 -0.010902334538606819 0.030649138469763054 -0.02312039160261621 0.001042074580999184 -0.009671647161187987 4.7622185907999395 0.030431951151906424 0.01043590442273208 -0.005938353544043549 0.04623940795042836 -0.04857643080496929 -0.019772780049109054 0.004421377843508473 0.04928218803679352 -5.563996742098201 -0.041327154285333935 0.013768358356685712 -6.673407070737305 0.01797487043384325 0.03188310521677492 -6.680595813256721 0.003266956336460015 -0.0017943973178031086 0.03669584757760699 -0.018324235782184714 0.019296089953244736 8.036563273978263 3.472322298219416 -19.250680860954493 -0.022757890140782156 10.376998523120038 -0.023055802611882375 -5.6246142953142435 -15.686991554752483 3.1725481627771104 0.0434439559471677 0.014883592639896154 0.04230116337396869 0.008327693770459567 4.649525977767219 0.02880946907766411 12.413176316194113 -8.26816780168024 6.872099866798898 0.006889484684918871 46.33420751132275 0.016743744895445813 -4.297105310665773 -14.735209775450521 -3.817675165811555 0.007722871268220935 -0.020235202323613363 -0.0007258496471681613 -0.0232400902251044 -10.735093991126414 -0.019073517575211477 
0.019864319303709164 0.0044462204910721 0.016849880417432957 -0.0037423475283761935 0.004535812971482172 -0.02256452664947742 2.039081073675544 3.5260501437922844 -1.6730531299277194 -0.6500587962068693 3.594034202988709 0.39463437281157354 -0.8672104489808623 -1.2099005051658904 2.136650570337334 -0.9308845719718871 -0.7600979118190399 -0.20617691980604722 0.5732293483083749 12.23322350611113 -2.336519204604575 0.08403200534013372 -0.6955187545118383 -7.434590156667253 1.0062729540487203 -16.613948248612296 -0.5683700890354042 -9.747894406064034 3.545607538739861 -15.482401946879719 73.23985198779708 -13.47130145208218 29.583928170376986 20.385495822519612 4.8358434289080865 81.8904353689534 16.60702739791211 -0.40244057545130296 -4.893760771821691 4.568457026109214 -0.10062560749937771 -1.5605398692062251 0.022519977461427962 -0.00036701065248525595 -56.227405463313374 -0.031120337614852656 -0.0012161555779489019 -56.2312008149649 -38.73833391404219 0.02267662558636982 0.03922998130545633 0.002240438102799062 0.04961542943515031 0.017516439784759866 -0.024238140479318892 0.008161285305080528 0.036970611858493936 -36.73078187404568 -0.026907194737516817 0.01832136468311805 0.010597071466599304 -0.012621227556337955 -0.0016090554638619771 -0.010469600875536172 -0.006877720245912944 -0.015715896206862784 -19.72115211222762 -0.03381207608543961 -0.034270615462442894 -0.01091775105623782 -0.011959315715453223 -0.042501893128913365 0.0046412311882088764 -0.029258333111430807 0.02747299884230984 24.07703806283881 0.025422110154896514 0.04603575275148953 28.85812057595004 0.027194870045393362 -0.003260266329380062 28.845985085617098 0.034271972933041114 -0.018036986934043944 6.74559543555758 1.8018352828156878 13.817953195349657 -75.42637829339839 3.5321741709681262 -13.410572910042255 -1.8623583442581748 17.123514598177653 -46.3800029649582 -20.556566423383742 8.824611258147824 -4.619576537678617 -0.49173081804133106 0.0862689879686513 -8.092203198115493 -0.011630796127912091 0.036137694340492556 44.56265428490717 -0.02663496479189493 0.016874422233485394 44.56375070003398 12.452896704722816 0.006133981141556933 0.00941774774796431 0.01611049799038052 0.046114042823289805 -0.02703866598855994 -0.03691419938641804 -0.0435942237952975 0.023788979483824566 11.14665632626954 0.0010232360119256628 0.012592822004203731 0.011713805516052559 0.008418613402900102 -0.03404353765259371 0.0057276756253218705 0.001476475977859948 -0.034535042816783205 4.756762058492431 -0.039079694468214986 0.004643981579726272 0.0048636544587218385 0.020688159059605526 0.010028763330641545 -0.02875658065603855 0.03477507152775257 0.01463345772204729 -5.631214465118906 0.013610249332175839 0.03905555403642893 -6.753996466242966 0.031119833410028212 0.038762512426181825 -6.762426917221291 0.029562468691123504 0.031517751736776234 -0.03501591944782947 -0.01259718129480172 -0.0018354647579535803 8.029638449268448 3.4673949570203164 -19.23907284066041 0.03732903322400049 10.357081720379398 -0.001609433324592506 -5.59225846626679 -15.62170610300318 3.2344926735070025 0.033335931809556275 0.007739819027843791 0.007818164661759589 0.006029679273541388 4.687918602487981 -0.04439027791803763 12.466967317865056 -8.24407262528306 6.860134576566987 -0.003722026620722116 46.38737590961123 0.006851763499780235 -4.342361526449653 -14.733742755235962 -3.845733464490475 0.025460439500409424 0.04268671086631923 -0.008508026767366636 -0.0020670248584176766 -10.70849569283756 0.013702564946272295 
